<mxfile host="Electron" modified="2023-04-30T08:27:31.685Z" agent="Mozilla/5.0 (Macintosh; Intel Mac OS X 10_15_7) AppleWebKit/537.36 (KHTML, like Gecko) draw.io/21.1.2 Chrome/106.0.5249.199 Electron/21.4.3 Safari/537.36" etag="ogZBukkjlUqrLcuETeF5" version="21.1.2" type="device">
  <diagram name="intro" id="RSr4sdEwBgxPDLrc0kyF">
    <mxGraphModel dx="509" dy="370" grid="0" gridSize="10" guides="1" tooltips="1" connect="1" arrows="1" fold="1" page="1" pageScale="1" pageWidth="2339" pageHeight="3300" math="1" shadow="0">
      <root>
        <mxCell id="0" />
        <mxCell id="1" parent="0" />
        <mxCell id="0Un-V5Zj1Mwy1KT30ReD-16" value="" style="rounded=0;whiteSpace=wrap;html=1;" vertex="1" parent="1">
          <mxGeometry x="630.25" y="220" width="72.75" height="130" as="geometry" />
        </mxCell>
        <mxCell id="0Un-V5Zj1Mwy1KT30ReD-17" value="Host 2" style="text;html=1;strokeColor=none;fillColor=none;align=center;verticalAlign=middle;whiteSpace=wrap;rounded=0;" vertex="1" parent="1">
          <mxGeometry x="638.12" y="204" width="57" height="16" as="geometry" />
        </mxCell>
        <mxCell id="0Un-V5Zj1Mwy1KT30ReD-31" value="" style="endArrow=none;dashed=1;html=1;rounded=0;" edge="1" parent="1">
          <mxGeometry width="50" height="50" relative="1" as="geometry">
            <mxPoint x="471.6" y="351" as="sourcePoint" />
            <mxPoint x="471" y="211" as="targetPoint" />
          </mxGeometry>
        </mxCell>
        <mxCell id="0Un-V5Zj1Mwy1KT30ReD-32" value="" style="rounded=0;whiteSpace=wrap;html=1;" vertex="1" parent="1">
          <mxGeometry x="485" y="220" width="132" height="130" as="geometry" />
        </mxCell>
        <mxCell id="0Un-V5Zj1Mwy1KT30ReD-33" value="Host 1" style="text;html=1;strokeColor=none;fillColor=none;align=center;verticalAlign=middle;whiteSpace=wrap;rounded=0;" vertex="1" parent="1">
          <mxGeometry x="527" y="204" width="57" height="16" as="geometry" />
        </mxCell>
        <mxCell id="0Un-V5Zj1Mwy1KT30ReD-34" value="" style="rounded=0;whiteSpace=wrap;html=1;fillStyle=zigzag-line;fillColor=none;strokeColor=#000000;gradientColor=none;" vertex="1" parent="1">
          <mxGeometry x="490" y="243" width="59" height="100" as="geometry" />
        </mxCell>
        <mxCell id="0Un-V5Zj1Mwy1KT30ReD-35" value="TEE &lt;b&gt;A&lt;/b&gt;" style="text;html=1;strokeColor=none;fillColor=none;align=center;verticalAlign=middle;whiteSpace=wrap;rounded=0;" vertex="1" parent="1">
          <mxGeometry x="500.5" y="227" width="38" height="16" as="geometry" />
        </mxCell>
        <mxCell id="0Un-V5Zj1Mwy1KT30ReD-36" style="rounded=0;orthogonalLoop=1;jettySize=auto;html=1;exitX=0.25;exitY=1;exitDx=0;exitDy=0;entryX=0.5;entryY=0;entryDx=0;entryDy=0;fillColor=#d5e8d4;strokeColor=#82b366;gradientColor=#97d077;endArrow=classicThin;endFill=1;" edge="1" parent="1" source="0Un-V5Zj1Mwy1KT30ReD-38" target="0Un-V5Zj1Mwy1KT30ReD-45">
          <mxGeometry relative="1" as="geometry" />
        </mxCell>
        <mxCell id="0Un-V5Zj1Mwy1KT30ReD-37" style="rounded=0;orthogonalLoop=1;jettySize=auto;html=1;exitX=0.5;exitY=1;exitDx=0;exitDy=0;entryX=0.5;entryY=0;entryDx=0;entryDy=0;fillColor=#d5e8d4;gradientColor=#97d077;strokeColor=#82b366;endArrow=classicThin;endFill=1;" edge="1" parent="1" source="0Un-V5Zj1Mwy1KT30ReD-38" target="0Un-V5Zj1Mwy1KT30ReD-41">
          <mxGeometry relative="1" as="geometry" />
        </mxCell>
        <mxCell id="0Un-V5Zj1Mwy1KT30ReD-38" value="" style="rounded=1;whiteSpace=wrap;html=1;" vertex="1" parent="1">
          <mxGeometry x="648" y="408" width="56.5" height="23" as="geometry" />
        </mxCell>
        <mxCell id="0Un-V5Zj1Mwy1KT30ReD-40" value="" style="rounded=0;whiteSpace=wrap;html=1;opacity=40;" vertex="1" parent="1">
          <mxGeometry x="657" y="465" width="15" height="19" as="geometry" />
        </mxCell>
        <mxCell id="0Un-V5Zj1Mwy1KT30ReD-41" value="" style="rounded=0;whiteSpace=wrap;html=1;opacity=40;fillColor=#1ba1e2;strokeColor=#000000;fontColor=#ffffff;" vertex="1" parent="1">
          <mxGeometry x="672" y="465" width="15" height="19" as="geometry" />
        </mxCell>
        <mxCell id="0Un-V5Zj1Mwy1KT30ReD-42" value="" style="rounded=0;whiteSpace=wrap;html=1;opacity=40;" vertex="1" parent="1">
          <mxGeometry x="687" y="465" width="22" height="19" as="geometry" />
        </mxCell>
        <mxCell id="0Un-V5Zj1Mwy1KT30ReD-43" value="..." style="text;html=1;strokeColor=none;fillColor=none;align=center;verticalAlign=middle;whiteSpace=wrap;rounded=0;" vertex="1" parent="1">
          <mxGeometry x="690" y="467" width="16" height="9" as="geometry" />
        </mxCell>
        <mxCell id="0Un-V5Zj1Mwy1KT30ReD-44" value="&lt;font style=&quot;font-size: 9px;&quot;&gt;Heap Memory&lt;/font&gt;" style="text;html=1;strokeColor=none;fillColor=none;align=center;verticalAlign=middle;whiteSpace=wrap;rounded=0;" vertex="1" parent="1">
          <mxGeometry x="645.75" y="484" width="59.5" height="16" as="geometry" />
        </mxCell>
        <mxCell id="0Un-V5Zj1Mwy1KT30ReD-45" value="" style="rounded=0;whiteSpace=wrap;html=1;opacity=40;fillColor=#1ba1e2;strokeColor=#000000;fillStyle=auto;shadow=0;glass=0;horizontal=1;verticalAlign=top;align=right;labelBackgroundColor=default;fontColor=#ffffff;" vertex="1" parent="1">
          <mxGeometry x="642" y="465" width="15" height="19" as="geometry" />
        </mxCell>
        <mxCell id="0Un-V5Zj1Mwy1KT30ReD-46" value="" style="rounded=1;whiteSpace=wrap;html=1;" vertex="1" parent="1">
          <mxGeometry x="496" y="253" width="47" height="18" as="geometry" />
        </mxCell>
        <mxCell id="0Un-V5Zj1Mwy1KT30ReD-65" style="rounded=0;orthogonalLoop=1;jettySize=auto;html=1;exitX=0.5;exitY=1;exitDx=0;exitDy=0;entryX=0.5;entryY=0;entryDx=0;entryDy=0;dashed=1;endArrow=classicThin;endFill=1;fillColor=#d5e8d4;gradientColor=#97d077;strokeColor=#82b366;opacity=60;" edge="1" parent="1" source="0Un-V5Zj1Mwy1KT30ReD-47" target="0Un-V5Zj1Mwy1KT30ReD-60">
          <mxGeometry relative="1" as="geometry" />
        </mxCell>
        <mxCell id="0Un-V5Zj1Mwy1KT30ReD-66" style="rounded=0;orthogonalLoop=1;jettySize=auto;html=1;exitX=0.5;exitY=1;exitDx=0;exitDy=0;fillColor=#f8cecc;gradientColor=#ea6b66;strokeColor=#FF0000;endArrow=classicThin;endFill=1;" edge="1" parent="1" source="0Un-V5Zj1Mwy1KT30ReD-47">
          <mxGeometry relative="1" as="geometry">
            <mxPoint x="584" y="308" as="targetPoint" />
          </mxGeometry>
        </mxCell>
        <mxCell id="0Un-V5Zj1Mwy1KT30ReD-47" value="&lt;i&gt;MS &lt;b&gt;A&lt;/b&gt;&lt;/i&gt;" style="text;html=1;strokeColor=none;fillColor=none;align=center;verticalAlign=middle;whiteSpace=wrap;rounded=0;" vertex="1" parent="1">
          <mxGeometry x="500.5" y="255" width="38" height="16" as="geometry" />
        </mxCell>
        <mxCell id="0Un-V5Zj1Mwy1KT30ReD-48" value="" style="rounded=0;whiteSpace=wrap;html=1;opacity=40;strokeColor=#000000;" vertex="1" parent="1">
          <mxGeometry x="504.5" y="309" width="15" height="19" as="geometry" />
        </mxCell>
        <mxCell id="0Un-V5Zj1Mwy1KT30ReD-49" value="" style="rounded=0;whiteSpace=wrap;html=1;fillColor=#d5e8d4;strokeColor=#000000;fillStyle=auto;shadow=0;glass=0;horizontal=1;verticalAlign=top;align=right;labelBackgroundColor=default;gradientColor=#97d077;" vertex="1" parent="1">
          <mxGeometry x="519.5" y="309" width="15" height="19" as="geometry" />
        </mxCell>
        <mxCell id="0Un-V5Zj1Mwy1KT30ReD-50" value="" style="rounded=0;whiteSpace=wrap;html=1;opacity=40;" vertex="1" parent="1">
          <mxGeometry x="589.5" y="465" width="15" height="19" as="geometry" />
        </mxCell>
        <mxCell id="0Un-V5Zj1Mwy1KT30ReD-51" value="" style="html=1;dashed=0;aspect=fixed;verticalLabelPosition=bottom;verticalAlign=top;align=center;shape=mxgraph.gmdl.star;strokeColor=none;fillColor=#737373;shadow=0;sketch=0;" vertex="1" parent="1">
          <mxGeometry x="405.62" y="423" width="20" height="20" as="geometry" />
        </mxCell>
        <mxCell id="0Un-V5Zj1Mwy1KT30ReD-53" value="" style="verticalLabelPosition=bottom;verticalAlign=top;html=1;shape=mxgraph.basic.star;" vertex="1" parent="1">
          <mxGeometry x="521" y="313.5" width="12" height="10" as="geometry" />
        </mxCell>
        <mxCell id="0Un-V5Zj1Mwy1KT30ReD-54" value="&lt;font style=&quot;font-size: 9px;&quot;&gt;HM&lt;/font&gt;" style="text;html=1;strokeColor=none;fillColor=none;align=center;verticalAlign=middle;whiteSpace=wrap;rounded=0;" vertex="1" parent="1">
          <mxGeometry x="509.5" y="327" width="20" height="16" as="geometry" />
        </mxCell>
        <mxCell id="0Un-V5Zj1Mwy1KT30ReD-55" value="" style="rounded=0;whiteSpace=wrap;html=1;fillStyle=zigzag-line;fillColor=none;strokeColor=#000000;gradientColor=none;" vertex="1" parent="1">
          <mxGeometry x="553" y="243" width="59" height="100" as="geometry" />
        </mxCell>
        <mxCell id="0Un-V5Zj1Mwy1KT30ReD-56" value="TEE &lt;b&gt;B&lt;/b&gt;" style="text;html=1;strokeColor=none;fillColor=none;align=center;verticalAlign=middle;whiteSpace=wrap;rounded=0;" vertex="1" parent="1">
          <mxGeometry x="563.5" y="227" width="38" height="16" as="geometry" />
        </mxCell>
        <mxCell id="0Un-V5Zj1Mwy1KT30ReD-57" value="" style="rounded=1;whiteSpace=wrap;html=1;" vertex="1" parent="1">
          <mxGeometry x="559" y="253" width="47" height="18" as="geometry" />
        </mxCell>
        <mxCell id="0Un-V5Zj1Mwy1KT30ReD-68" style="rounded=0;orthogonalLoop=1;jettySize=auto;html=1;exitX=0.5;exitY=1;exitDx=0;exitDy=0;entryX=0.5;entryY=0;entryDx=0;entryDy=0;endArrow=classicThin;endFill=1;startArrow=none;startFill=0;fillColor=#d5e8d4;gradientColor=#97d077;strokeColor=#82b366;" edge="1" parent="1" source="0Un-V5Zj1Mwy1KT30ReD-58" target="0Un-V5Zj1Mwy1KT30ReD-49">
          <mxGeometry relative="1" as="geometry" />
        </mxCell>
        <mxCell id="0Un-V5Zj1Mwy1KT30ReD-82" style="rounded=0;orthogonalLoop=1;jettySize=auto;html=1;exitX=0.5;exitY=1;exitDx=0;exitDy=0;entryX=0.5;entryY=0;entryDx=0;entryDy=0;strokeColor=#FF0000;endArrow=classicThin;endFill=1;" edge="1" parent="1" target="0Un-V5Zj1Mwy1KT30ReD-76">
          <mxGeometry relative="1" as="geometry">
            <mxPoint x="628.0249999999999" y="295.98" as="sourcePoint" />
          </mxGeometry>
        </mxCell>
        <mxCell id="0Un-V5Zj1Mwy1KT30ReD-58" value="&lt;i&gt;MS &lt;b&gt;B&lt;/b&gt;&lt;/i&gt;" style="text;html=1;strokeColor=none;fillColor=none;align=center;verticalAlign=middle;whiteSpace=wrap;rounded=0;" vertex="1" parent="1">
          <mxGeometry x="563.5" y="255" width="38" height="16" as="geometry" />
        </mxCell>
        <mxCell id="0Un-V5Zj1Mwy1KT30ReD-59" value="" style="rounded=0;whiteSpace=wrap;html=1;opacity=40;strokeColor=#000000;" vertex="1" parent="1">
          <mxGeometry x="590" y="309" width="15" height="19" as="geometry" />
        </mxCell>
        <mxCell id="0Un-V5Zj1Mwy1KT30ReD-60" value="" style="rounded=0;whiteSpace=wrap;html=1;fillColor=#d5e8d4;strokeColor=#000000;fillStyle=auto;shadow=0;glass=0;horizontal=1;verticalAlign=top;align=right;labelBackgroundColor=default;gradientColor=#97d077;" vertex="1" parent="1">
          <mxGeometry x="560" y="309" width="15" height="19" as="geometry" />
        </mxCell>
        <mxCell id="0Un-V5Zj1Mwy1KT30ReD-61" value="" style="verticalLabelPosition=bottom;verticalAlign=top;html=1;shape=mxgraph.basic.star;fillColor=#f5f5f5;gradientColor=#b3b3b3;strokeColor=#666666;" vertex="1" parent="1">
          <mxGeometry x="631" y="506" width="12" height="10" as="geometry" />
        </mxCell>
        <mxCell id="0Un-V5Zj1Mwy1KT30ReD-62" value="&lt;font style=&quot;font-size: 9px;&quot;&gt;HM&lt;/font&gt;" style="text;html=1;strokeColor=none;fillColor=none;align=center;verticalAlign=middle;whiteSpace=wrap;rounded=0;" vertex="1" parent="1">
          <mxGeometry x="572.5" y="327" width="20" height="16" as="geometry" />
        </mxCell>
        <mxCell id="0Un-V5Zj1Mwy1KT30ReD-63" value="" style="rounded=0;whiteSpace=wrap;html=1;opacity=30;fillColor=#e51400;strokeColor=#000000;fillStyle=auto;shadow=0;glass=0;horizontal=1;verticalAlign=top;align=right;labelBackgroundColor=default;fontColor=#ffffff;" vertex="1" parent="1">
          <mxGeometry x="575" y="309" width="15" height="19" as="geometry" />
        </mxCell>
        <mxCell id="0Un-V5Zj1Mwy1KT30ReD-64" value="&lt;font color=&quot;#ff0000&quot;&gt;!&lt;/font&gt;" style="text;html=1;strokeColor=none;fillColor=none;align=center;verticalAlign=middle;whiteSpace=wrap;rounded=0;" vertex="1" parent="1">
          <mxGeometry x="558.25" y="427" width="14" height="16" as="geometry" />
        </mxCell>
        <mxCell id="0Un-V5Zj1Mwy1KT30ReD-67" value="" style="shape=image;verticalLabelPosition=bottom;verticalAlign=top;imageAspect=0;image=https://creazilla-store.fra1.digitaloceanspaces.com/emojis/44806/angry-face-with-horns-emoji-clipart-md.png" vertex="1" parent="1">
          <mxGeometry x="513.75" y="433" width="15" height="14" as="geometry" />
        </mxCell>
        <mxCell id="0Un-V5Zj1Mwy1KT30ReD-69" value="" style="rounded=0;whiteSpace=wrap;html=1;fillStyle=zigzag-line;fillColor=none;strokeColor=#000000;gradientColor=none;" vertex="1" parent="1">
          <mxGeometry x="637" y="243" width="59" height="100" as="geometry" />
        </mxCell>
        <mxCell id="0Un-V5Zj1Mwy1KT30ReD-70" value="TEE &lt;b&gt;C&lt;/b&gt;" style="text;html=1;strokeColor=none;fillColor=none;align=center;verticalAlign=middle;whiteSpace=wrap;rounded=0;" vertex="1" parent="1">
          <mxGeometry x="647.5" y="227" width="38" height="16" as="geometry" />
        </mxCell>
        <mxCell id="0Un-V5Zj1Mwy1KT30ReD-71" value="" style="rounded=1;whiteSpace=wrap;html=1;" vertex="1" parent="1">
          <mxGeometry x="643" y="253" width="47" height="18" as="geometry" />
        </mxCell>
        <mxCell id="0Un-V5Zj1Mwy1KT30ReD-210" style="rounded=0;orthogonalLoop=1;jettySize=auto;html=1;exitX=0.5;exitY=1;exitDx=0;exitDy=0;entryX=0.5;entryY=0;entryDx=0;entryDy=0;fillColor=#d5e8d4;gradientColor=#97d077;strokeColor=#82b366;endArrow=classicThin;endFill=1;startArrow=none;startFill=0;" edge="1" parent="1" source="0Un-V5Zj1Mwy1KT30ReD-72" target="0Un-V5Zj1Mwy1KT30ReD-76">
          <mxGeometry relative="1" as="geometry" />
        </mxCell>
        <mxCell id="0Un-V5Zj1Mwy1KT30ReD-72" value="&lt;i&gt;MS &lt;b&gt;C&lt;/b&gt;&lt;/i&gt;" style="text;html=1;strokeColor=none;fillColor=none;align=center;verticalAlign=middle;whiteSpace=wrap;rounded=0;" vertex="1" parent="1">
          <mxGeometry x="647.5" y="255" width="38" height="16" as="geometry" />
        </mxCell>
        <mxCell id="0Un-V5Zj1Mwy1KT30ReD-73" value="" style="rounded=0;whiteSpace=wrap;html=1;opacity=40;strokeColor=#000000;" vertex="1" parent="1">
          <mxGeometry x="666.5" y="309" width="15" height="19" as="geometry" />
        </mxCell>
        <mxCell id="0Un-V5Zj1Mwy1KT30ReD-75" value="&lt;font style=&quot;font-size: 9px;&quot;&gt;HM&lt;/font&gt;" style="text;html=1;strokeColor=none;fillColor=none;align=center;verticalAlign=middle;whiteSpace=wrap;rounded=0;" vertex="1" parent="1">
          <mxGeometry x="656.5" y="327" width="20" height="16" as="geometry" />
        </mxCell>
        <mxCell id="0Un-V5Zj1Mwy1KT30ReD-76" value="" style="rounded=0;whiteSpace=wrap;html=1;opacity=30;fillColor=#e51400;strokeColor=#000000;fillStyle=auto;shadow=0;glass=0;horizontal=1;verticalAlign=top;align=right;labelBackgroundColor=default;fontColor=#ffffff;" vertex="1" parent="1">
          <mxGeometry x="651.5" y="309" width="15" height="19" as="geometry" />
        </mxCell>
        <mxCell id="0Un-V5Zj1Mwy1KT30ReD-77" value="&lt;font color=&quot;#ff0000&quot;&gt;!&lt;/font&gt;" style="text;html=1;strokeColor=none;fillColor=none;align=center;verticalAlign=middle;whiteSpace=wrap;rounded=0;" vertex="1" parent="1">
          <mxGeometry x="586.5" y="431" width="14" height="16" as="geometry" />
        </mxCell>
        <mxCell id="0Un-V5Zj1Mwy1KT30ReD-80" value="" style="verticalLabelPosition=bottom;verticalAlign=top;html=1;shape=mxgraph.basic.star;" vertex="1" parent="1">
          <mxGeometry x="653.5" y="313.5" width="12" height="10" as="geometry" />
        </mxCell>
        <mxCell id="0Un-V5Zj1Mwy1KT30ReD-83" value="" style="verticalLabelPosition=bottom;verticalAlign=top;html=1;shape=mxgraph.basic.star;" vertex="1" parent="1">
          <mxGeometry x="569" y="282" width="8" height="8" as="geometry" />
        </mxCell>
        <mxCell id="0Un-V5Zj1Mwy1KT30ReD-85" value="&lt;font color=&quot;#ff0000&quot; face=&quot;Comic Sans MS&quot; style=&quot;font-size: 8px;&quot;&gt;shared&lt;/font&gt;" style="text;html=1;strokeColor=none;fillColor=none;align=center;verticalAlign=middle;whiteSpace=wrap;rounded=0;rotation=0;" vertex="1" parent="1">
          <mxGeometry x="609" y="399" width="22" height="16" as="geometry" />
        </mxCell>
        <mxCell id="0Un-V5Zj1Mwy1KT30ReD-86" value="" style="shape=image;verticalLabelPosition=bottom;verticalAlign=top;imageAspect=0;image=https://creazilla-store.fra1.digitaloceanspaces.com/emojis/44806/angry-face-with-horns-emoji-clipart-md.png" vertex="1" parent="1">
          <mxGeometry x="442.75" y="419" width="15" height="14" as="geometry" />
        </mxCell>
        <mxCell id="0Un-V5Zj1Mwy1KT30ReD-87" value="" style="image;aspect=fixed;html=1;points=[];align=center;fontSize=12;image=img/lib/azure2/general/Bug.svg;" vertex="1" parent="1">
          <mxGeometry x="509.04999999999995" y="268" width="11.95" height="12.97" as="geometry" />
        </mxCell>
        <mxCell id="0Un-V5Zj1Mwy1KT30ReD-93" value="" style="triangle;whiteSpace=wrap;html=1;rotation=-90;" vertex="1" parent="1">
          <mxGeometry x="563.75" y="314.37" width="6.75" height="9.25" as="geometry" />
        </mxCell>
        <mxCell id="0Un-V5Zj1Mwy1KT30ReD-95" value="" style="html=1;whiteSpace=wrap;aspect=fixed;shape=isoRectangle;" vertex="1" parent="1">
          <mxGeometry x="405" y="476" width="13.33" height="8" as="geometry" />
        </mxCell>
        <mxCell id="0Un-V5Zj1Mwy1KT30ReD-96" value="" style="shape=waypoint;sketch=0;fillStyle=solid;size=6;pointerEvents=1;points=[];fillColor=none;resizable=0;rotatable=0;perimeter=centerPerimeter;snapToPoint=1;" vertex="1" parent="1">
          <mxGeometry x="457" y="408" width="20" height="20" as="geometry" />
        </mxCell>
        <mxCell id="0Un-V5Zj1Mwy1KT30ReD-97" value="" style="strokeWidth=2;html=1;shape=mxgraph.flowchart.extract_or_measurement;whiteSpace=wrap;" vertex="1" parent="1">
          <mxGeometry x="510" y="451" width="20" height="14" as="geometry" />
        </mxCell>
        <mxCell id="0Un-V5Zj1Mwy1KT30ReD-98" value="" style="ellipse;whiteSpace=wrap;html=1;aspect=fixed;" vertex="1" parent="1">
          <mxGeometry x="579.5" y="316" width="7" height="7" as="geometry" />
        </mxCell>
        <mxCell id="0Un-V5Zj1Mwy1KT30ReD-99" value="" style="ellipse;whiteSpace=wrap;html=1;aspect=fixed;" vertex="1" parent="1">
          <mxGeometry x="493.5" y="285" width="7" height="7" as="geometry" />
        </mxCell>
        <mxCell id="0Un-V5Zj1Mwy1KT30ReD-100" value="&lt;font style=&quot;font-size: 8px;&quot;&gt;leakage&lt;/font&gt;" style="text;html=1;strokeColor=none;fillColor=none;align=center;verticalAlign=middle;whiteSpace=wrap;rounded=0;rotation=0;" vertex="1" parent="1">
          <mxGeometry x="531.75" y="411" width="38" height="16" as="geometry" />
        </mxCell>
        <mxCell id="0Un-V5Zj1Mwy1KT30ReD-101" value="&lt;font face=&quot;Comic Sans MS&quot; style=&quot;font-size: 8px;&quot;&gt;leakage&lt;/font&gt;" style="text;html=1;strokeColor=none;fillColor=none;align=center;verticalAlign=middle;whiteSpace=wrap;rounded=0;rotation=0;" vertex="1" parent="1">
          <mxGeometry x="604" y="403" width="38" height="16" as="geometry" />
        </mxCell>
        <mxCell id="0Un-V5Zj1Mwy1KT30ReD-102" value="" style="rounded=0;orthogonalLoop=1;jettySize=auto;html=1;exitX=0.5;exitY=1;exitDx=0;exitDy=0;entryX=0.5;entryY=0;entryDx=0;entryDy=0;strokeColor=#FF0000;endArrow=classicThin;endFill=1;" edge="1" parent="1" source="0Un-V5Zj1Mwy1KT30ReD-58" target="0Un-V5Zj1Mwy1KT30ReD-89">
          <mxGeometry relative="1" as="geometry">
            <mxPoint x="583" y="271" as="sourcePoint" />
            <mxPoint x="653" y="309" as="targetPoint" />
          </mxGeometry>
        </mxCell>
        <mxCell id="0Un-V5Zj1Mwy1KT30ReD-89" value="" style="image;aspect=fixed;html=1;points=[];align=center;fontSize=12;image=img/lib/azure2/general/Bug.svg;" vertex="1" parent="1">
          <mxGeometry x="616.05" y="283.01" width="11.95" height="12.97" as="geometry" />
        </mxCell>
        <mxCell id="0Un-V5Zj1Mwy1KT30ReD-103" value="&lt;font color=&quot;#ff0000&quot; face=&quot;Comic Sans MS&quot; style=&quot;font-size: 8px;&quot;&gt;leaked&lt;/font&gt;" style="text;html=1;strokeColor=none;fillColor=none;align=center;verticalAlign=middle;whiteSpace=wrap;rounded=0;rotation=0;" vertex="1" parent="1">
          <mxGeometry x="580.5" y="277" width="22" height="16" as="geometry" />
        </mxCell>
        <mxCell id="0Un-V5Zj1Mwy1KT30ReD-104" value="&lt;font style=&quot;font-size: 8px;&quot;&gt;&lt;font style=&quot;font-size: 8px;&quot; face=&quot;Comic Sans MS&quot; color=&quot;#ff0000&quot;&gt;accidental access&lt;/font&gt;&lt;/font&gt;" style="text;html=1;strokeColor=none;fillColor=none;align=center;verticalAlign=middle;whiteSpace=wrap;rounded=0;rotation=0;" vertex="1" parent="1">
          <mxGeometry x="439.25" y="406" width="67.5" height="13" as="geometry" />
        </mxCell>
        <mxCell id="0Un-V5Zj1Mwy1KT30ReD-105" value="&lt;font color=&quot;#ff0000&quot; face=&quot;Comic Sans MS&quot; style=&quot;font-size: 8px;&quot;&gt;leaked&lt;/font&gt;" style="text;html=1;strokeColor=none;fillColor=none;align=center;verticalAlign=middle;whiteSpace=wrap;rounded=0;rotation=0;" vertex="1" parent="1">
          <mxGeometry x="505" y="279.98" width="22" height="16" as="geometry" />
        </mxCell>
        <mxCell id="0Un-V5Zj1Mwy1KT30ReD-106" value="" style="endArrow=none;dashed=1;html=1;rounded=0;" edge="1" parent="1">
          <mxGeometry width="50" height="50" relative="1" as="geometry">
            <mxPoint x="719" y="350" as="sourcePoint" />
            <mxPoint x="719.11" y="210.5" as="targetPoint" />
          </mxGeometry>
        </mxCell>
        <mxCell id="0Un-V5Zj1Mwy1KT30ReD-191" value="" style="rounded=0;whiteSpace=wrap;html=1;" vertex="1" parent="1">
          <mxGeometry x="383" y="220" width="72.75" height="130" as="geometry" />
        </mxCell>
        <mxCell id="0Un-V5Zj1Mwy1KT30ReD-192" value="Host&amp;nbsp;" style="text;html=1;strokeColor=none;fillColor=none;align=center;verticalAlign=middle;whiteSpace=wrap;rounded=0;" vertex="1" parent="1">
          <mxGeometry x="390.88" y="204" width="57" height="16" as="geometry" />
        </mxCell>
        <mxCell id="0Un-V5Zj1Mwy1KT30ReD-194" value="" style="rounded=0;whiteSpace=wrap;html=1;fillStyle=zigzag-line;fillColor=none;strokeColor=#000000;gradientColor=none;" vertex="1" parent="1">
          <mxGeometry x="389.75" y="243" width="59" height="100" as="geometry" />
        </mxCell>
        <mxCell id="0Un-V5Zj1Mwy1KT30ReD-195" value="TEE&amp;nbsp;" style="text;html=1;strokeColor=none;fillColor=none;align=center;verticalAlign=middle;whiteSpace=wrap;rounded=0;" vertex="1" parent="1">
          <mxGeometry x="400.25" y="227" width="38" height="16" as="geometry" />
        </mxCell>
        <mxCell id="0Un-V5Zj1Mwy1KT30ReD-196" value="" style="rounded=1;whiteSpace=wrap;html=1;" vertex="1" parent="1">
          <mxGeometry x="395.75" y="253" width="47" height="18" as="geometry" />
        </mxCell>
        <mxCell id="0Un-V5Zj1Mwy1KT30ReD-208" style="rounded=0;orthogonalLoop=1;jettySize=auto;html=1;exitX=0.25;exitY=1;exitDx=0;exitDy=0;fillColor=#d5e8d4;gradientColor=#97d077;strokeColor=#82b366;endArrow=classicThin;endFill=1;" edge="1" parent="1" source="0Un-V5Zj1Mwy1KT30ReD-197">
          <mxGeometry relative="1" as="geometry">
            <mxPoint x="399.25" y="302" as="targetPoint" />
            <Array as="points" />
          </mxGeometry>
        </mxCell>
        <mxCell id="0Un-V5Zj1Mwy1KT30ReD-209" style="rounded=0;orthogonalLoop=1;jettySize=auto;html=1;exitX=0.5;exitY=1;exitDx=0;exitDy=0;entryX=0.75;entryY=0;entryDx=0;entryDy=0;fillColor=#d5e8d4;gradientColor=#97d077;strokeColor=#82b366;endArrow=classicThin;endFill=1;" edge="1" parent="1" source="0Un-V5Zj1Mwy1KT30ReD-197" target="0Un-V5Zj1Mwy1KT30ReD-203">
          <mxGeometry relative="1" as="geometry" />
        </mxCell>
        <mxCell id="0Un-V5Zj1Mwy1KT30ReD-197" value="&lt;i&gt;Service&lt;/i&gt;" style="text;html=1;strokeColor=none;fillColor=none;align=center;verticalAlign=middle;whiteSpace=wrap;rounded=0;" vertex="1" parent="1">
          <mxGeometry x="400.25" y="255" width="38" height="16" as="geometry" />
        </mxCell>
        <mxCell id="0Un-V5Zj1Mwy1KT30ReD-202" value="" style="rounded=0;whiteSpace=wrap;html=1;opacity=40;strokeColor=#000000;" vertex="1" parent="1">
          <mxGeometry x="403.25" y="303" width="15" height="19" as="geometry" />
        </mxCell>
        <mxCell id="0Un-V5Zj1Mwy1KT30ReD-203" value="" style="rounded=0;whiteSpace=wrap;html=1;fillColor=#d5e8d4;strokeColor=#000000;gradientColor=#97d077;" vertex="1" parent="1">
          <mxGeometry x="416.75" y="303" width="11" height="19" as="geometry" />
        </mxCell>
        <mxCell id="0Un-V5Zj1Mwy1KT30ReD-204" value="" style="rounded=0;whiteSpace=wrap;html=1;opacity=40;strokeColor=#000000;" vertex="1" parent="1">
          <mxGeometry x="427.75" y="303" width="17" height="19" as="geometry" />
        </mxCell>
        <mxCell id="0Un-V5Zj1Mwy1KT30ReD-205" value="..." style="text;html=1;strokeColor=none;fillColor=none;align=center;verticalAlign=middle;whiteSpace=wrap;rounded=0;" vertex="1" parent="1">
          <mxGeometry x="428.75" y="306" width="16" height="9" as="geometry" />
        </mxCell>
        <mxCell id="0Un-V5Zj1Mwy1KT30ReD-206" value="&lt;font style=&quot;font-size: 9px;&quot;&gt;Heap Memory&lt;/font&gt;" style="text;html=1;strokeColor=none;fillColor=none;align=center;verticalAlign=middle;whiteSpace=wrap;rounded=0;" vertex="1" parent="1">
          <mxGeometry x="389.25" y="322" width="59.5" height="16" as="geometry" />
        </mxCell>
        <mxCell id="0Un-V5Zj1Mwy1KT30ReD-207" value="" style="rounded=0;whiteSpace=wrap;html=1;fillColor=#d5e8d4;strokeColor=#000000;fillStyle=auto;shadow=0;glass=0;horizontal=1;verticalAlign=top;align=right;labelBackgroundColor=default;gradientColor=#97d077;" vertex="1" parent="1">
          <mxGeometry x="393.75" y="303" width="11" height="19" as="geometry" />
        </mxCell>
        <mxCell id="0Un-V5Zj1Mwy1KT30ReD-212" value="" style="rounded=0;whiteSpace=wrap;html=1;" vertex="1" parent="1">
          <mxGeometry x="734" y="220" width="132" height="130" as="geometry" />
        </mxCell>
        <mxCell id="0Un-V5Zj1Mwy1KT30ReD-239" value="" style="rounded=0;whiteSpace=wrap;html=1;fillColor=#ffe6cc;strokeColor=#d79b00;" vertex="1" parent="1">
          <mxGeometry x="740" y="228" width="121" height="118" as="geometry" />
        </mxCell>
        <mxCell id="0Un-V5Zj1Mwy1KT30ReD-240" value="Host 1" style="text;html=1;strokeColor=none;fillColor=none;align=center;verticalAlign=middle;whiteSpace=wrap;rounded=0;" vertex="1" parent="1">
          <mxGeometry x="771.5" y="204" width="57" height="16" as="geometry" />
        </mxCell>
        <mxCell id="0Un-V5Zj1Mwy1KT30ReD-241" value="MVM" style="text;html=1;strokeColor=none;fillColor=none;align=center;verticalAlign=middle;whiteSpace=wrap;rounded=0;" vertex="1" parent="1">
          <mxGeometry x="738" y="228" width="35.5" height="14" as="geometry" />
        </mxCell>
        <mxCell id="0Un-V5Zj1Mwy1KT30ReD-213" value="" style="rounded=0;whiteSpace=wrap;html=1;fillStyle=zigzag-line;fillColor=none;strokeColor=#000000;gradientColor=none;" vertex="1" parent="1">
          <mxGeometry x="745.12" y="326" width="110" height="16" as="geometry" />
        </mxCell>
        <mxCell id="0Un-V5Zj1Mwy1KT30ReD-243" value="&lt;font style=&quot;font-size: 9px;&quot;&gt;Life &amp;amp; Ownership Manager&lt;/font&gt;" style="text;html=1;strokeColor=none;fillColor=none;align=center;verticalAlign=middle;whiteSpace=wrap;rounded=0;" vertex="1" parent="1">
          <mxGeometry x="744.87" y="326" width="109.25" height="14" as="geometry" />
        </mxCell>
        <mxCell id="0Un-V5Zj1Mwy1KT30ReD-255" style="edgeStyle=orthogonalEdgeStyle;rounded=0;orthogonalLoop=1;jettySize=auto;html=1;exitX=0.25;exitY=1;exitDx=0;exitDy=0;startArrow=classicThin;startFill=1;endArrow=none;endFill=0;entryX=0.097;entryY=0.051;entryDx=0;entryDy=0;entryPerimeter=0;" edge="1" parent="1" target="0Un-V5Zj1Mwy1KT30ReD-243">
          <mxGeometry relative="1" as="geometry">
            <mxPoint x="756.0050000000001" y="299" as="sourcePoint" />
            <mxPoint x="756" y="325" as="targetPoint" />
          </mxGeometry>
        </mxCell>
        <mxCell id="0Un-V5Zj1Mwy1KT30ReD-223" value="" style="rounded=0;whiteSpace=wrap;html=1;fillStyle=zigzag-line;fillColor=none;strokeColor=#000000;gradientColor=none;" vertex="1" parent="1">
          <mxGeometry x="747.04" y="253" width="50.5" height="46" as="geometry" />
        </mxCell>
        <mxCell id="0Un-V5Zj1Mwy1KT30ReD-214" value="&lt;font style=&quot;font-size: 8px;&quot;&gt;TEE &lt;b&gt;A&lt;/b&gt;&lt;/font&gt;" style="text;html=1;strokeColor=none;fillColor=none;align=center;verticalAlign=middle;whiteSpace=wrap;rounded=0;" vertex="1" parent="1">
          <mxGeometry x="753.54" y="239" width="39" height="16" as="geometry" />
        </mxCell>
        <mxCell id="0Un-V5Zj1Mwy1KT30ReD-215" value="" style="rounded=1;whiteSpace=wrap;html=1;" vertex="1" parent="1">
          <mxGeometry x="751.54" y="258" width="41.46" height="12" as="geometry" />
        </mxCell>
        <mxCell id="0Un-V5Zj1Mwy1KT30ReD-216" style="rounded=0;orthogonalLoop=1;jettySize=auto;html=1;exitX=0.5;exitY=1;exitDx=0;exitDy=0;entryX=0.5;entryY=0;entryDx=0;entryDy=0;dashed=1;endArrow=classicThin;endFill=1;fillColor=#d5e8d4;gradientColor=#97d077;strokeColor=#82b366;opacity=60;" edge="1" parent="1" source="0Un-V5Zj1Mwy1KT30ReD-218" target="0Un-V5Zj1Mwy1KT30ReD-229">
          <mxGeometry relative="1" as="geometry" />
        </mxCell>
        <mxCell id="0Un-V5Zj1Mwy1KT30ReD-217" style="rounded=0;orthogonalLoop=1;jettySize=auto;html=1;exitX=0.5;exitY=1;exitDx=0;exitDy=0;fillColor=#f8cecc;gradientColor=#ea6b66;strokeColor=#FF0000;endArrow=classicThin;endFill=1;" edge="1" parent="1" source="0Un-V5Zj1Mwy1KT30ReD-218">
          <mxGeometry relative="1" as="geometry">
            <mxPoint x="992" y="631.11" as="targetPoint" />
          </mxGeometry>
        </mxCell>
        <mxCell id="0Un-V5Zj1Mwy1KT30ReD-218" value="&lt;i&gt;MS &lt;b&gt;A&lt;/b&gt;&lt;/i&gt;" style="text;html=1;strokeColor=none;fillColor=none;align=center;verticalAlign=middle;whiteSpace=wrap;rounded=0;" vertex="1" parent="1">
          <mxGeometry x="908.5" y="571.11" width="38" height="16" as="geometry" />
        </mxCell>
        <mxCell id="0Un-V5Zj1Mwy1KT30ReD-219" value="" style="rounded=0;whiteSpace=wrap;html=1;opacity=40;strokeColor=#000000;" vertex="1" parent="1">
          <mxGeometry x="912.5" y="632.11" width="15" height="19" as="geometry" />
        </mxCell>
        <mxCell id="0Un-V5Zj1Mwy1KT30ReD-220" value="" style="rounded=0;whiteSpace=wrap;html=1;fillColor=#d5e8d4;strokeColor=#000000;fillStyle=auto;shadow=0;glass=0;horizontal=1;verticalAlign=top;align=right;labelBackgroundColor=default;gradientColor=#97d077;" vertex="1" parent="1">
          <mxGeometry x="927.5" y="632.11" width="15" height="19" as="geometry" />
        </mxCell>
        <mxCell id="0Un-V5Zj1Mwy1KT30ReD-221" value="" style="verticalLabelPosition=bottom;verticalAlign=top;html=1;shape=mxgraph.basic.star;" vertex="1" parent="1">
          <mxGeometry x="929" y="636.61" width="12" height="10" as="geometry" />
        </mxCell>
        <mxCell id="0Un-V5Zj1Mwy1KT30ReD-222" value="&lt;font style=&quot;font-size: 9px;&quot;&gt;HM&lt;/font&gt;" style="text;html=1;strokeColor=none;fillColor=none;align=center;verticalAlign=middle;whiteSpace=wrap;rounded=0;" vertex="1" parent="1">
          <mxGeometry x="917.5" y="650.11" width="20" height="16" as="geometry" />
        </mxCell>
        <mxCell id="0Un-V5Zj1Mwy1KT30ReD-225" value="" style="rounded=1;whiteSpace=wrap;html=1;" vertex="1" parent="1">
          <mxGeometry x="967" y="576.11" width="47" height="18" as="geometry" />
        </mxCell>
        <mxCell id="0Un-V5Zj1Mwy1KT30ReD-226" style="rounded=0;orthogonalLoop=1;jettySize=auto;html=1;exitX=0.5;exitY=1;exitDx=0;exitDy=0;entryX=0.5;entryY=0;entryDx=0;entryDy=0;endArrow=classicThin;endFill=1;startArrow=classicThin;startFill=1;fillColor=#d5e8d4;gradientColor=#97d077;strokeColor=#82b366;" edge="1" parent="1" source="0Un-V5Zj1Mwy1KT30ReD-227" target="0Un-V5Zj1Mwy1KT30ReD-220">
          <mxGeometry relative="1" as="geometry" />
        </mxCell>
        <mxCell id="0Un-V5Zj1Mwy1KT30ReD-227" value="&lt;i&gt;MS &lt;b&gt;B&lt;/b&gt;&lt;/i&gt;" style="text;html=1;strokeColor=none;fillColor=none;align=center;verticalAlign=middle;whiteSpace=wrap;rounded=0;" vertex="1" parent="1">
          <mxGeometry x="971.5" y="578.11" width="38" height="16" as="geometry" />
        </mxCell>
        <mxCell id="0Un-V5Zj1Mwy1KT30ReD-228" value="" style="rounded=0;whiteSpace=wrap;html=1;opacity=40;strokeColor=#000000;" vertex="1" parent="1">
          <mxGeometry x="998" y="632.11" width="15" height="19" as="geometry" />
        </mxCell>
        <mxCell id="0Un-V5Zj1Mwy1KT30ReD-229" value="" style="rounded=0;whiteSpace=wrap;html=1;fillColor=#d5e8d4;strokeColor=#000000;fillStyle=auto;shadow=0;glass=0;horizontal=1;verticalAlign=top;align=right;labelBackgroundColor=default;gradientColor=#97d077;" vertex="1" parent="1">
          <mxGeometry x="968" y="632.11" width="15" height="19" as="geometry" />
        </mxCell>
        <mxCell id="0Un-V5Zj1Mwy1KT30ReD-230" value="&lt;font style=&quot;font-size: 9px;&quot;&gt;HM&lt;/font&gt;" style="text;html=1;strokeColor=none;fillColor=none;align=center;verticalAlign=middle;whiteSpace=wrap;rounded=0;" vertex="1" parent="1">
          <mxGeometry x="980.5" y="650.11" width="20" height="16" as="geometry" />
        </mxCell>
        <mxCell id="0Un-V5Zj1Mwy1KT30ReD-231" value="" style="rounded=0;whiteSpace=wrap;html=1;opacity=30;fillColor=#e51400;strokeColor=#000000;fillStyle=auto;shadow=0;glass=0;horizontal=1;verticalAlign=top;align=right;labelBackgroundColor=default;fontColor=#ffffff;" vertex="1" parent="1">
          <mxGeometry x="983" y="632.11" width="15" height="19" as="geometry" />
        </mxCell>
        <mxCell id="0Un-V5Zj1Mwy1KT30ReD-232" value="" style="verticalLabelPosition=bottom;verticalAlign=top;html=1;shape=mxgraph.basic.star;" vertex="1" parent="1">
          <mxGeometry x="977" y="605.11" width="8" height="8" as="geometry" />
        </mxCell>
        <mxCell id="0Un-V5Zj1Mwy1KT30ReD-233" value="" style="image;aspect=fixed;html=1;points=[];align=center;fontSize=12;image=img/lib/azure2/general/Bug.svg;" vertex="1" parent="1">
          <mxGeometry x="917.05" y="591.11" width="11.95" height="12.97" as="geometry" />
        </mxCell>
        <mxCell id="0Un-V5Zj1Mwy1KT30ReD-234" value="" style="triangle;whiteSpace=wrap;html=1;rotation=-90;" vertex="1" parent="1">
          <mxGeometry x="971.75" y="637.48" width="6.75" height="9.25" as="geometry" />
        </mxCell>
        <mxCell id="0Un-V5Zj1Mwy1KT30ReD-235" value="" style="ellipse;whiteSpace=wrap;html=1;aspect=fixed;" vertex="1" parent="1">
          <mxGeometry x="987.5" y="639.11" width="7" height="7" as="geometry" />
        </mxCell>
        <mxCell id="0Un-V5Zj1Mwy1KT30ReD-236" value="" style="ellipse;whiteSpace=wrap;html=1;aspect=fixed;" vertex="1" parent="1">
          <mxGeometry x="901.5" y="608.11" width="7" height="7" as="geometry" />
        </mxCell>
        <mxCell id="0Un-V5Zj1Mwy1KT30ReD-237" value="&lt;font color=&quot;#ff0000&quot; face=&quot;Comic Sans MS&quot; style=&quot;font-size: 8px;&quot;&gt;leaked&lt;/font&gt;" style="text;html=1;strokeColor=none;fillColor=none;align=center;verticalAlign=middle;whiteSpace=wrap;rounded=0;rotation=0;" vertex="1" parent="1">
          <mxGeometry x="988.5" y="600.11" width="22" height="16" as="geometry" />
        </mxCell>
        <mxCell id="0Un-V5Zj1Mwy1KT30ReD-238" value="&lt;font color=&quot;#ff0000&quot; face=&quot;Comic Sans MS&quot; style=&quot;font-size: 8px;&quot;&gt;leaked&lt;/font&gt;" style="text;html=1;strokeColor=none;fillColor=none;align=center;verticalAlign=middle;whiteSpace=wrap;rounded=0;rotation=0;" vertex="1" parent="1">
          <mxGeometry x="913" y="603.09" width="22" height="16" as="geometry" />
        </mxCell>
        <mxCell id="0Un-V5Zj1Mwy1KT30ReD-293" style="rounded=0;orthogonalLoop=1;jettySize=auto;html=1;endArrow=classicThin;endFill=1;fillColor=#d5e8d4;gradientColor=#97d077;strokeColor=#82b366;endSize=3;entryX=0;entryY=0;entryDx=0;entryDy=0;exitX=0.5;exitY=1;exitDx=0;exitDy=0;" edge="1" parent="1" source="0Un-V5Zj1Mwy1KT30ReD-215" target="0Un-V5Zj1Mwy1KT30ReD-287">
          <mxGeometry relative="1" as="geometry">
            <mxPoint x="771.91" y="268" as="sourcePoint" />
            <mxPoint x="825.91" y="281" as="targetPoint" />
          </mxGeometry>
        </mxCell>
        <mxCell id="0Un-V5Zj1Mwy1KT30ReD-246" value="&lt;i style=&quot;font-size: 8px;&quot;&gt;MS &lt;b&gt;A&lt;/b&gt;&lt;/i&gt;" style="text;html=1;strokeColor=none;fillColor=none;align=center;verticalAlign=middle;whiteSpace=wrap;rounded=0;" vertex="1" parent="1">
          <mxGeometry x="753.27" y="255" width="38" height="16" as="geometry" />
        </mxCell>
        <mxCell id="0Un-V5Zj1Mwy1KT30ReD-247" value="" style="shape=message;html=1;html=1;outlineConnect=0;labelPosition=center;verticalLabelPosition=bottom;align=center;verticalAlign=top;" vertex="1" parent="1">
          <mxGeometry x="1164.5" y="468" width="60" height="40" as="geometry" />
        </mxCell>
        <mxCell id="0Un-V5Zj1Mwy1KT30ReD-248" value="" style="verticalLabelPosition=bottom;shadow=0;dashed=0;align=center;html=1;verticalAlign=top;strokeWidth=1;shape=mxgraph.mockup.misc.mail2;strokeColor=#999999;" vertex="1" parent="1">
          <mxGeometry x="1061.5" y="587.11" width="29" height="15" as="geometry" />
        </mxCell>
        <mxCell id="0Un-V5Zj1Mwy1KT30ReD-249" value="" style="rounded=0;whiteSpace=wrap;html=1;opacity=40;strokeColor=#000000;" vertex="1" parent="1">
          <mxGeometry x="766.0400000000001" y="283" width="10" height="13" as="geometry" />
        </mxCell>
        <mxCell id="0Un-V5Zj1Mwy1KT30ReD-250" value="" style="rounded=0;whiteSpace=wrap;html=1;fillColor=#d5e8d4;strokeColor=#000000;fillStyle=auto;shadow=0;glass=0;horizontal=1;verticalAlign=top;align=right;labelBackgroundColor=default;gradientColor=#97d077;" vertex="1" parent="1">
          <mxGeometry x="1193.5" y="622" width="15" height="19" as="geometry" />
        </mxCell>
        <mxCell id="0Un-V5Zj1Mwy1KT30ReD-251" value="" style="verticalLabelPosition=bottom;verticalAlign=top;html=1;shape=mxgraph.basic.star;" vertex="1" parent="1">
          <mxGeometry x="1195" y="626.5" width="12" height="10" as="geometry" />
        </mxCell>
        <mxCell id="0Un-V5Zj1Mwy1KT30ReD-252" value="&lt;font style=&quot;font-size: 8px;&quot;&gt;HM&lt;/font&gt;" style="text;html=1;strokeColor=none;fillColor=none;align=center;verticalAlign=middle;whiteSpace=wrap;rounded=0;" vertex="1" parent="1">
          <mxGeometry x="746.66" y="281" width="20" height="16" as="geometry" />
        </mxCell>
        <mxCell id="0Un-V5Zj1Mwy1KT30ReD-253" value="" style="rounded=0;whiteSpace=wrap;html=1;strokeColor=#82b366;fillColor=#d5e8d4;gradientColor=#97d077;" vertex="1" parent="1">
          <mxGeometry x="776.0400000000001" y="283" width="10" height="13" as="geometry" />
        </mxCell>
        <mxCell id="0Un-V5Zj1Mwy1KT30ReD-254" value="" style="verticalLabelPosition=bottom;verticalAlign=top;html=1;shape=mxgraph.basic.star;" vertex="1" parent="1">
          <mxGeometry x="778.0400000000001" y="287" width="6" height="6" as="geometry" />
        </mxCell>
        <mxCell id="0Un-V5Zj1Mwy1KT30ReD-256" value="" style="shape=card;whiteSpace=wrap;html=1;size=7;opacity=80;" vertex="1" parent="1">
          <mxGeometry x="1105" y="511" width="34" height="18" as="geometry" />
        </mxCell>
        <mxCell id="0Un-V5Zj1Mwy1KT30ReD-257" value="" style="verticalLabelPosition=bottom;verticalAlign=top;html=1;shape=mxgraph.basic.star;" vertex="1" parent="1">
          <mxGeometry x="1112" y="511.98" width="5.5" height="6" as="geometry" />
        </mxCell>
        <mxCell id="0Un-V5Zj1Mwy1KT30ReD-259" value="&lt;font style=&quot;font-size: 9px;&quot;&gt;life&lt;/font&gt;" style="text;html=1;strokeColor=none;fillColor=none;align=center;verticalAlign=middle;whiteSpace=wrap;rounded=0;" vertex="1" parent="1">
          <mxGeometry x="1117.5" y="506.98" width="20" height="16" as="geometry" />
        </mxCell>
        <mxCell id="0Un-V5Zj1Mwy1KT30ReD-260" value="&lt;font style=&quot;font-size: 8px;&quot;&gt;&lt;b&gt;B&lt;/b&gt;&lt;/font&gt;" style="text;html=1;strokeColor=none;fillColor=none;align=center;verticalAlign=middle;whiteSpace=wrap;rounded=0;" vertex="1" parent="1">
          <mxGeometry x="1105" y="515" width="11" height="16" as="geometry" />
        </mxCell>
        <mxCell id="0Un-V5Zj1Mwy1KT30ReD-261" value="" style="pointerEvents=1;shadow=0;dashed=0;html=1;strokeColor=none;labelPosition=center;verticalLabelPosition=bottom;verticalAlign=top;outlineConnect=0;align=center;shape=mxgraph.office.security.lock_unprotected;fillColor=#7FBA42;" vertex="1" parent="1">
          <mxGeometry x="1115" y="520" width="4.5" height="8" as="geometry" />
        </mxCell>
        <mxCell id="0Un-V5Zj1Mwy1KT30ReD-262" value="" style="endArrow=none;dashed=1;html=1;rounded=0;" edge="1" parent="1">
          <mxGeometry width="50" height="50" relative="1" as="geometry">
            <mxPoint x="1122.5" y="529" as="sourcePoint" />
            <mxPoint x="1122.25" y="520" as="targetPoint" />
          </mxGeometry>
        </mxCell>
        <mxCell id="0Un-V5Zj1Mwy1KT30ReD-263" value="&lt;font style=&quot;font-size: 8px;&quot;&gt;&lt;b&gt;C&lt;/b&gt;&lt;/font&gt;" style="text;html=1;strokeColor=none;fillColor=none;align=center;verticalAlign=middle;whiteSpace=wrap;rounded=0;" vertex="1" parent="1">
          <mxGeometry x="1121.5" y="515" width="11" height="16" as="geometry" />
        </mxCell>
        <mxCell id="0Un-V5Zj1Mwy1KT30ReD-264" value="" style="pointerEvents=1;shadow=0;dashed=0;html=1;strokeColor=none;labelPosition=center;verticalLabelPosition=bottom;verticalAlign=top;outlineConnect=0;align=center;shape=mxgraph.office.security.lock_protected;fillColor=#DA4026;" vertex="1" parent="1">
          <mxGeometry x="1131" y="520.5" width="6" height="7" as="geometry" />
        </mxCell>
        <mxCell id="0Un-V5Zj1Mwy1KT30ReD-273" value="" style="shape=card;whiteSpace=wrap;html=1;size=7;opacity=80;" vertex="1" parent="1">
          <mxGeometry x="760.88" y="304" width="34" height="18" as="geometry" />
        </mxCell>
        <mxCell id="0Un-V5Zj1Mwy1KT30ReD-274" value="" style="verticalLabelPosition=bottom;verticalAlign=top;html=1;shape=mxgraph.basic.star;" vertex="1" parent="1">
          <mxGeometry x="767.88" y="304.98" width="5.5" height="6" as="geometry" />
        </mxCell>
        <mxCell id="0Un-V5Zj1Mwy1KT30ReD-275" value="&lt;font size=&quot;1&quot; style=&quot;&quot;&gt;&lt;i style=&quot;font-size: 7px;&quot;&gt;GPA&lt;/i&gt;&lt;/font&gt;" style="text;html=1;strokeColor=none;fillColor=none;align=center;verticalAlign=middle;whiteSpace=wrap;rounded=0;" vertex="1" parent="1">
          <mxGeometry x="773" y="299.37" width="20" height="16" as="geometry" />
        </mxCell>
        <mxCell id="0Un-V5Zj1Mwy1KT30ReD-276" value="&lt;font style=&quot;font-size: 8px;&quot;&gt;&lt;b&gt;B&lt;/b&gt;&lt;/font&gt;" style="text;html=1;strokeColor=none;fillColor=none;align=center;verticalAlign=middle;whiteSpace=wrap;rounded=0;" vertex="1" parent="1">
          <mxGeometry x="760.88" y="308" width="11" height="16" as="geometry" />
        </mxCell>
        <mxCell id="0Un-V5Zj1Mwy1KT30ReD-277" value="" style="pointerEvents=1;shadow=0;dashed=0;html=1;strokeColor=none;labelPosition=center;verticalLabelPosition=bottom;verticalAlign=top;outlineConnect=0;align=center;shape=mxgraph.office.security.lock_unprotected;fillColor=#7FBA42;" vertex="1" parent="1">
          <mxGeometry x="770.88" y="313" width="4.5" height="8" as="geometry" />
        </mxCell>
        <mxCell id="0Un-V5Zj1Mwy1KT30ReD-278" value="" style="endArrow=none;dashed=1;html=1;rounded=0;" edge="1" parent="1">
          <mxGeometry width="50" height="50" relative="1" as="geometry">
            <mxPoint x="778.38" y="322" as="sourcePoint" />
            <mxPoint x="778.13" y="313" as="targetPoint" />
          </mxGeometry>
        </mxCell>
        <mxCell id="0Un-V5Zj1Mwy1KT30ReD-279" value="&lt;font style=&quot;font-size: 8px;&quot;&gt;&lt;b&gt;C&lt;/b&gt;&lt;/font&gt;" style="text;html=1;strokeColor=none;fillColor=none;align=center;verticalAlign=middle;whiteSpace=wrap;rounded=0;" vertex="1" parent="1">
          <mxGeometry x="777.38" y="308" width="11" height="16" as="geometry" />
        </mxCell>
        <mxCell id="0Un-V5Zj1Mwy1KT30ReD-280" value="" style="pointerEvents=1;shadow=0;dashed=0;html=1;strokeColor=none;labelPosition=center;verticalLabelPosition=bottom;verticalAlign=top;outlineConnect=0;align=center;shape=mxgraph.office.security.lock_protected;fillColor=#DA4026;" vertex="1" parent="1">
          <mxGeometry x="786.88" y="313.5" width="6" height="7" as="geometry" />
        </mxCell>
        <mxCell id="0Un-V5Zj1Mwy1KT30ReD-281" value="" style="rounded=0;whiteSpace=wrap;html=1;fillStyle=zigzag-line;fillColor=none;strokeColor=#000000;gradientColor=none;" vertex="1" parent="1">
          <mxGeometry x="803.85" y="253" width="50.5" height="46" as="geometry" />
        </mxCell>
        <mxCell id="0Un-V5Zj1Mwy1KT30ReD-282" value="&lt;font style=&quot;font-size: 8px;&quot;&gt;TEE &lt;b&gt;B&lt;/b&gt;&lt;/font&gt;" style="text;html=1;strokeColor=none;fillColor=none;align=center;verticalAlign=middle;whiteSpace=wrap;rounded=0;" vertex="1" parent="1">
          <mxGeometry x="810.35" y="239" width="39" height="16" as="geometry" />
        </mxCell>
        <mxCell id="0Un-V5Zj1Mwy1KT30ReD-283" value="" style="rounded=1;whiteSpace=wrap;html=1;" vertex="1" parent="1">
          <mxGeometry x="808.35" y="258" width="40.65" height="12" as="geometry" />
        </mxCell>
        <mxCell id="0Un-V5Zj1Mwy1KT30ReD-294" style="rounded=0;orthogonalLoop=1;jettySize=auto;html=1;endArrow=classicThin;endFill=1;endSize=3;fillColor=#d5e8d4;gradientColor=#97d077;strokeColor=#82b366;entryX=0.75;entryY=0;entryDx=0;entryDy=0;exitX=0.5;exitY=1;exitDx=0;exitDy=0;" edge="1" parent="1" source="0Un-V5Zj1Mwy1KT30ReD-284" target="0Un-V5Zj1Mwy1KT30ReD-253">
          <mxGeometry relative="1" as="geometry">
            <mxPoint x="828.91" y="268" as="sourcePoint" />
            <mxPoint x="785.91" y="281" as="targetPoint" />
          </mxGeometry>
        </mxCell>
        <mxCell id="0Un-V5Zj1Mwy1KT30ReD-284" value="&lt;i style=&quot;font-size: 8px;&quot;&gt;MS &lt;b&gt;B&lt;/b&gt;&lt;/i&gt;" style="text;html=1;strokeColor=none;fillColor=none;align=center;verticalAlign=middle;whiteSpace=wrap;rounded=0;" vertex="1" parent="1">
          <mxGeometry x="809.91" y="255" width="38" height="16" as="geometry" />
        </mxCell>
        <mxCell id="0Un-V5Zj1Mwy1KT30ReD-285" value="" style="rounded=0;whiteSpace=wrap;html=1;opacity=40;strokeColor=#000000;" vertex="1" parent="1">
          <mxGeometry x="829.91" y="283" width="10" height="13" as="geometry" />
        </mxCell>
        <mxCell id="0Un-V5Zj1Mwy1KT30ReD-286" value="&lt;font style=&quot;font-size: 8px;&quot;&gt;HM&lt;/font&gt;" style="text;html=1;strokeColor=none;fillColor=none;align=center;verticalAlign=middle;whiteSpace=wrap;rounded=0;" vertex="1" parent="1">
          <mxGeometry x="802.41" y="282" width="20" height="16" as="geometry" />
        </mxCell>
        <mxCell id="0Un-V5Zj1Mwy1KT30ReD-287" value="" style="rounded=0;whiteSpace=wrap;html=1;strokeColor=#82b366;fillColor=#d5e8d4;gradientColor=#97d077;" vertex="1" parent="1">
          <mxGeometry x="819.91" y="283" width="10" height="13" as="geometry" />
        </mxCell>
        <mxCell id="0Un-V5Zj1Mwy1KT30ReD-289" value="" style="triangle;whiteSpace=wrap;html=1;rotation=-90;" vertex="1" parent="1">
          <mxGeometry x="823.41" y="286.86" width="4" height="6.14" as="geometry" />
        </mxCell>
        <mxCell id="0Un-V5Zj1Mwy1KT30ReD-290" value="" style="rounded=0;whiteSpace=wrap;html=1;opacity=40;strokeColor=#000000;" vertex="1" parent="1">
          <mxGeometry x="839.91" y="283" width="10" height="13" as="geometry" />
        </mxCell>
        <mxCell id="0Un-V5Zj1Mwy1KT30ReD-292" value="" style="ellipse;whiteSpace=wrap;html=1;aspect=fixed;" vertex="1" parent="1">
          <mxGeometry x="832.41" y="287.43" width="5" height="5" as="geometry" />
        </mxCell>
        <mxCell id="0Un-V5Zj1Mwy1KT30ReD-300" style="edgeStyle=orthogonalEdgeStyle;rounded=0;orthogonalLoop=1;jettySize=auto;html=1;exitX=0.25;exitY=1;exitDx=0;exitDy=0;entryX=0.596;entryY=0.017;entryDx=0;entryDy=0;entryPerimeter=0;startArrow=classicThin;startFill=1;endArrow=none;endFill=0;" edge="1" parent="1" target="0Un-V5Zj1Mwy1KT30ReD-243">
          <mxGeometry relative="1" as="geometry">
            <mxPoint x="809.5950000000001" y="298.68" as="sourcePoint" />
            <mxPoint x="809.5182500000002" y="321.984" as="targetPoint" />
          </mxGeometry>
        </mxCell>
        <mxCell id="0Un-V5Zj1Mwy1KT30ReD-301" value="" style="shape=card;whiteSpace=wrap;html=1;size=7;opacity=80;" vertex="1" parent="1">
          <mxGeometry x="814.47" y="303.68" width="34" height="18" as="geometry" />
        </mxCell>
        <mxCell id="0Un-V5Zj1Mwy1KT30ReD-303" value="&lt;font size=&quot;1&quot; style=&quot;&quot;&gt;&lt;i style=&quot;font-size: 7px;&quot;&gt;GPA&lt;/i&gt;&lt;/font&gt;" style="text;html=1;strokeColor=none;fillColor=none;align=center;verticalAlign=middle;whiteSpace=wrap;rounded=0;" vertex="1" parent="1">
          <mxGeometry x="829.91" y="299" width="20" height="16" as="geometry" />
        </mxCell>
        <mxCell id="0Un-V5Zj1Mwy1KT30ReD-309" value="" style="triangle;whiteSpace=wrap;html=1;rotation=-90;" vertex="1" parent="1">
          <mxGeometry x="820.97" y="313.48" width="4" height="6.14" as="geometry" />
        </mxCell>
        <mxCell id="0Un-V5Zj1Mwy1KT30ReD-312" value="" style="endArrow=classicThin;html=1;rounded=0;endFill=1;endSize=1;" edge="1" parent="1">
          <mxGeometry width="50" height="50" relative="1" as="geometry">
            <mxPoint x="828.47" y="316.98" as="sourcePoint" />
            <mxPoint x="835.47" y="316.98" as="targetPoint" />
          </mxGeometry>
        </mxCell>
        <mxCell id="0Un-V5Zj1Mwy1KT30ReD-313" value="&lt;font style=&quot;font-size: 8px;&quot;&gt;&lt;b&gt;A&lt;/b&gt;&lt;/font&gt;" style="text;html=1;strokeColor=none;fillColor=none;align=center;verticalAlign=middle;whiteSpace=wrap;rounded=0;" vertex="1" parent="1">
          <mxGeometry x="833.47" y="310.98" width="11" height="10" as="geometry" />
        </mxCell>
        <mxCell id="0Un-V5Zj1Mwy1KT30ReD-314" value="" style="rounded=0;whiteSpace=wrap;html=1;" vertex="1" parent="1">
          <mxGeometry x="880.25" y="220" width="65" height="130" as="geometry" />
        </mxCell>
        <mxCell id="0Un-V5Zj1Mwy1KT30ReD-315" value="Host 2" style="text;html=1;strokeColor=none;fillColor=none;align=center;verticalAlign=middle;whiteSpace=wrap;rounded=0;" vertex="1" parent="1">
          <mxGeometry x="883.25" y="204" width="57" height="16" as="geometry" />
        </mxCell>
        <mxCell id="0Un-V5Zj1Mwy1KT30ReD-316" value="" style="rounded=0;whiteSpace=wrap;html=1;fillColor=#ffe6cc;strokeColor=#d79b00;" vertex="1" parent="1">
          <mxGeometry x="884.25" y="228" width="56" height="118" as="geometry" />
        </mxCell>
        <mxCell id="0Un-V5Zj1Mwy1KT30ReD-317" value="MVM" style="text;html=1;strokeColor=none;fillColor=none;align=center;verticalAlign=middle;whiteSpace=wrap;rounded=0;" vertex="1" parent="1">
          <mxGeometry x="881.25" y="228" width="35.5" height="14" as="geometry" />
        </mxCell>
        <mxCell id="0Un-V5Zj1Mwy1KT30ReD-318" value="" style="rounded=0;whiteSpace=wrap;html=1;fillStyle=zigzag-line;fillColor=none;strokeColor=#000000;gradientColor=none;" vertex="1" parent="1">
          <mxGeometry x="889.25" y="253" width="45" height="52" as="geometry" />
        </mxCell>
        <mxCell id="0Un-V5Zj1Mwy1KT30ReD-319" value="&lt;font style=&quot;font-size: 8px;&quot;&gt;TEE &lt;b&gt;C&lt;/b&gt;&lt;/font&gt;" style="text;html=1;strokeColor=none;fillColor=none;align=center;verticalAlign=middle;whiteSpace=wrap;rounded=0;" vertex="1" parent="1">
          <mxGeometry x="890.63" y="239" width="39" height="16" as="geometry" />
        </mxCell>
        <mxCell id="0Un-V5Zj1Mwy1KT30ReD-320" value="" style="rounded=1;whiteSpace=wrap;html=1;" vertex="1" parent="1">
          <mxGeometry x="893.25" y="258" width="36" height="13" as="geometry" />
        </mxCell>
        <mxCell id="0Un-V5Zj1Mwy1KT30ReD-362" style="rounded=0;orthogonalLoop=1;jettySize=auto;html=1;exitX=0.25;exitY=1;exitDx=0;exitDy=0;entryX=0.5;entryY=0;entryDx=0;entryDy=0;endArrow=cross;endFill=0;endSize=4;fillColor=#f8cecc;strokeColor=#b85450;startArrow=classicThin;startFill=1;" edge="1" parent="1" source="0Un-V5Zj1Mwy1KT30ReD-356" target="0Un-V5Zj1Mwy1KT30ReD-359">
          <mxGeometry relative="1" as="geometry" />
        </mxCell>
        <mxCell id="0Un-V5Zj1Mwy1KT30ReD-373" style="rounded=0;orthogonalLoop=1;jettySize=auto;html=1;exitX=0.25;exitY=1;exitDx=0;exitDy=0;entryX=0.5;entryY=0;entryDx=0;entryDy=0;fillColor=#d5e8d4;strokeColor=#82b366;endSize=3;endArrow=classicThin;endFill=1;" edge="1" parent="1" source="0Un-V5Zj1Mwy1KT30ReD-321" target="0Un-V5Zj1Mwy1KT30ReD-356">
          <mxGeometry relative="1" as="geometry" />
        </mxCell>
        <mxCell id="0Un-V5Zj1Mwy1KT30ReD-321" value="&lt;i style=&quot;font-size: 8px;&quot;&gt;MS &lt;b&gt;C&lt;/b&gt;&lt;/i&gt;" style="text;html=1;strokeColor=none;fillColor=none;align=center;verticalAlign=middle;whiteSpace=wrap;rounded=0;" vertex="1" parent="1">
          <mxGeometry x="893.69" y="256" width="32.88" height="16" as="geometry" />
        </mxCell>
        <mxCell id="0Un-V5Zj1Mwy1KT30ReD-323" value="&lt;font style=&quot;font-size: 8px;&quot;&gt;HM&lt;/font&gt;" style="text;html=1;strokeColor=none;fillColor=none;align=center;verticalAlign=middle;whiteSpace=wrap;rounded=0;" vertex="1" parent="1">
          <mxGeometry x="909.25" y="291" width="20" height="16" as="geometry" />
        </mxCell>
        <mxCell id="0Un-V5Zj1Mwy1KT30ReD-324" value="" style="rounded=0;whiteSpace=wrap;html=1;opacity=40;" vertex="1" parent="1">
          <mxGeometry x="918.2500000000001" y="280" width="10" height="13" as="geometry" />
        </mxCell>
        <mxCell id="0Un-V5Zj1Mwy1KT30ReD-328" value="" style="rounded=0;whiteSpace=wrap;html=1;fillStyle=zigzag-line;fillColor=none;strokeColor=#000000;gradientColor=none;" vertex="1" parent="1">
          <mxGeometry x="888.25" y="321" width="48" height="22" as="geometry" />
        </mxCell>
        <mxCell id="0Un-V5Zj1Mwy1KT30ReD-331" value="&lt;font style=&quot;font-size: 9px;&quot;&gt;LOM&lt;/font&gt;" style="text;html=1;strokeColor=none;fillColor=none;align=center;verticalAlign=middle;whiteSpace=wrap;rounded=0;" vertex="1" parent="1">
          <mxGeometry x="913.75" y="325" width="20.5" height="14" as="geometry" />
        </mxCell>
        <mxCell id="0Un-V5Zj1Mwy1KT30ReD-333" value="" style="verticalLabelPosition=bottom;verticalAlign=top;html=1;shape=mxgraph.basic.rect;fillColor2=none;strokeWidth=1;size=20;indent=5;" vertex="1" parent="1">
          <mxGeometry x="909.62" y="380" width="32.88" height="8.25" as="geometry" />
        </mxCell>
        <mxCell id="0Un-V5Zj1Mwy1KT30ReD-224" value="&lt;i&gt;&lt;font style=&quot;font-size: 6px;&quot;&gt;sync&lt;/font&gt;&lt;/i&gt;" style="text;html=1;strokeColor=none;fillColor=none;align=center;verticalAlign=middle;whiteSpace=wrap;rounded=0;" vertex="1" parent="1">
          <mxGeometry x="863.25" y="327" width="20" height="10" as="geometry" />
        </mxCell>
        <mxCell id="0Un-V5Zj1Mwy1KT30ReD-334" value="" style="rounded=0;whiteSpace=wrap;html=1;" vertex="1" parent="1">
          <mxGeometry x="961.73" y="220" width="76.5" height="130" as="geometry" />
        </mxCell>
        <mxCell id="0Un-V5Zj1Mwy1KT30ReD-335" style="rounded=0;orthogonalLoop=1;jettySize=auto;html=1;exitX=0.5;exitY=1;exitDx=0;exitDy=0;fillColor=#d5e8d4;gradientColor=#97d077;strokeColor=#82b366;endArrow=classicThin;endFill=1;" edge="1" parent="1">
          <mxGeometry relative="1" as="geometry">
            <mxPoint x="971.36" y="245.18" as="sourcePoint" />
            <mxPoint x="991.82" y="245.18" as="targetPoint" />
          </mxGeometry>
        </mxCell>
        <mxCell id="0Un-V5Zj1Mwy1KT30ReD-336" style="rounded=0;orthogonalLoop=1;jettySize=auto;html=1;exitX=0.5;exitY=1;exitDx=0;exitDy=0;fillColor=#f8cecc;gradientColor=#ea6b66;strokeColor=#FF0000;endArrow=classicThin;endFill=1;" edge="1" parent="1">
          <mxGeometry relative="1" as="geometry">
            <mxPoint x="874.25" y="416.5" as="sourcePoint" />
            <mxPoint x="914" y="401" as="targetPoint" />
          </mxGeometry>
        </mxCell>
        <mxCell id="0Un-V5Zj1Mwy1KT30ReD-337" value="" style="rounded=0;whiteSpace=wrap;html=1;strokeColor=#d79b00;fillColor=#ffe6cc;" vertex="1" parent="1">
          <mxGeometry x="978.5" y="265.01" width="40" height="8.99" as="geometry" />
        </mxCell>
        <mxCell id="0Un-V5Zj1Mwy1KT30ReD-338" value="" style="rounded=0;whiteSpace=wrap;html=1;opacity=30;fillColor=#e51400;strokeColor=#000000;fillStyle=auto;shadow=0;glass=0;horizontal=1;verticalAlign=top;align=right;labelBackgroundColor=default;fontColor=#ffffff;" vertex="1" parent="1">
          <mxGeometry x="842" y="444" width="15" height="19" as="geometry" />
        </mxCell>
        <mxCell id="0Un-V5Zj1Mwy1KT30ReD-339" value="&lt;font style=&quot;font-size: 9px;&quot;&gt;Legal / illegal&amp;nbsp;&lt;/font&gt;" style="text;html=1;strokeColor=none;fillColor=none;align=center;verticalAlign=middle;whiteSpace=wrap;rounded=0;" vertex="1" parent="1">
          <mxGeometry x="968" y="218" width="66.46" height="16" as="geometry" />
        </mxCell>
        <mxCell id="0Un-V5Zj1Mwy1KT30ReD-340" value="&lt;font style=&quot;font-size: 9px;&quot;&gt;access&lt;/font&gt;" style="text;html=1;strokeColor=none;fillColor=none;align=center;verticalAlign=middle;whiteSpace=wrap;rounded=0;" vertex="1" parent="1">
          <mxGeometry x="968.14" y="227" width="58.62" height="16" as="geometry" />
        </mxCell>
        <mxCell id="0Un-V5Zj1Mwy1KT30ReD-343" value="" style="triangle;whiteSpace=wrap;html=1;rotation=-90;" vertex="1" parent="1">
          <mxGeometry x="819.4100000000001" y="304.84" width="4" height="6.14" as="geometry" />
        </mxCell>
        <mxCell id="0Un-V5Zj1Mwy1KT30ReD-344" value="" style="ellipse;whiteSpace=wrap;html=1;aspect=fixed;" vertex="1" parent="1">
          <mxGeometry x="826.6" y="305.41" width="5" height="5" as="geometry" />
        </mxCell>
        <mxCell id="0Un-V5Zj1Mwy1KT30ReD-345" value="&lt;font style=&quot;font-size: 9px;&quot;&gt;Rum&#39;s component&lt;/font&gt;" style="text;html=1;strokeColor=none;fillColor=none;align=center;verticalAlign=middle;whiteSpace=wrap;rounded=0;" vertex="1" parent="1">
          <mxGeometry x="963.04" y="248" width="75.19" height="16" as="geometry" />
        </mxCell>
        <mxCell id="0Un-V5Zj1Mwy1KT30ReD-346" value="&lt;font size=&quot;1&quot;&gt;rust compiler secure micro service&lt;/font&gt;" style="text;html=1;strokeColor=none;fillColor=none;align=center;verticalAlign=middle;whiteSpace=wrap;rounded=0;" vertex="1" parent="1">
          <mxGeometry x="751.97" y="383" width="97.03" height="16" as="geometry" />
        </mxCell>
        <mxCell id="0Un-V5Zj1Mwy1KT30ReD-347" value="&lt;font style=&quot;font-size: 9px;&quot;&gt;Secure / Insecure&lt;br&gt;&amp;nbsp;&lt;/font&gt;" style="text;html=1;strokeColor=none;fillColor=none;align=center;verticalAlign=middle;whiteSpace=wrap;rounded=0;" vertex="1" parent="1">
          <mxGeometry x="957.7900000000002" y="280" width="83.73" height="16" as="geometry" />
        </mxCell>
        <mxCell id="0Un-V5Zj1Mwy1KT30ReD-349" value="&lt;font style=&quot;font-size: 9px;&quot;&gt;memory&lt;/font&gt;" style="text;html=1;strokeColor=none;fillColor=none;align=center;verticalAlign=middle;whiteSpace=wrap;rounded=0;" vertex="1" parent="1">
          <mxGeometry x="960.4399999999998" y="281.5" width="75.19" height="16" as="geometry" />
        </mxCell>
        <mxCell id="0Un-V5Zj1Mwy1KT30ReD-350" value="" style="rounded=0;whiteSpace=wrap;html=1;strokeColor=#b85450;fillColor=#f8cecc;" vertex="1" parent="1">
          <mxGeometry x="1007.49" y="298.01" width="19.27" height="8.99" as="geometry" />
        </mxCell>
        <mxCell id="0Un-V5Zj1Mwy1KT30ReD-351" value="&amp;nbsp;Monolithic Service" style="text;html=1;strokeColor=none;fillColor=none;align=center;verticalAlign=middle;whiteSpace=wrap;rounded=0;" vertex="1" parent="1">
          <mxGeometry x="378.46000000000004" y="85.12" width="104.05" height="16" as="geometry" />
        </mxCell>
        <mxCell id="0Un-V5Zj1Mwy1KT30ReD-352" value="" style="shape=curlyBracket;whiteSpace=wrap;html=1;rounded=1;flipH=1;labelPosition=right;verticalLabelPosition=middle;align=left;verticalAlign=middle;rotation=-90;" vertex="1" parent="1">
          <mxGeometry x="423.74" y="60.620000000000005" width="13.5" height="94" as="geometry" />
        </mxCell>
        <mxCell id="0Un-V5Zj1Mwy1KT30ReD-353" value="Multi-host Micro-service Architecture" style="text;html=1;strokeColor=none;fillColor=none;align=center;verticalAlign=middle;whiteSpace=wrap;rounded=0;" vertex="1" parent="1">
          <mxGeometry x="605.04" y="85.12" width="210.5" height="16" as="geometry" />
        </mxCell>
        <mxCell id="0Un-V5Zj1Mwy1KT30ReD-354" value="" style="shape=curlyBracket;whiteSpace=wrap;html=1;rounded=1;flipH=1;labelPosition=right;verticalLabelPosition=middle;align=left;verticalAlign=middle;rotation=-90;" vertex="1" parent="1">
          <mxGeometry x="703.54" y="-106.75" width="13.5" height="428.75" as="geometry" />
        </mxCell>
        <mxCell id="0Un-V5Zj1Mwy1KT30ReD-355" style="edgeStyle=orthogonalEdgeStyle;rounded=0;orthogonalLoop=1;jettySize=auto;html=1;entryX=0.581;entryY=0.045;entryDx=0;entryDy=0;entryPerimeter=0;startArrow=classicThin;startFill=1;endArrow=none;endFill=0;" edge="1" parent="1" target="0Un-V5Zj1Mwy1KT30ReD-328">
          <mxGeometry relative="1" as="geometry">
            <mxPoint x="916.14" y="305.32" as="sourcePoint" />
            <mxPoint x="916.1382500000002" y="318.62399999999997" as="targetPoint" />
          </mxGeometry>
        </mxCell>
        <mxCell id="0Un-V5Zj1Mwy1KT30ReD-356" value="" style="rounded=0;whiteSpace=wrap;html=1;fillColor=#d5e8d4;strokeColor=#82b366;" vertex="1" parent="1">
          <mxGeometry x="908.2500000000001" y="280" width="10" height="13" as="geometry" />
        </mxCell>
        <mxCell id="0Un-V5Zj1Mwy1KT30ReD-357" value="" style="shape=card;whiteSpace=wrap;html=1;size=5;opacity=80;" vertex="1" parent="1">
          <mxGeometry x="920.75" y="308.5" width="13" height="10" as="geometry" />
        </mxCell>
        <mxCell id="0Un-V5Zj1Mwy1KT30ReD-358" value="..." style="text;html=1;strokeColor=none;fillColor=none;align=center;verticalAlign=middle;whiteSpace=wrap;rounded=0;" vertex="1" parent="1">
          <mxGeometry x="919.75" y="306.37" width="16" height="9" as="geometry" />
        </mxCell>
        <mxCell id="0Un-V5Zj1Mwy1KT30ReD-359" value="" style="rounded=0;whiteSpace=wrap;html=1;fillColor=#d5e8d4;strokeColor=#82b366;" vertex="1" parent="1">
          <mxGeometry x="890.6300000000001" y="326" width="10" height="13" as="geometry" />
        </mxCell>
        <mxCell id="0Un-V5Zj1Mwy1KT30ReD-360" value="" style="rounded=0;whiteSpace=wrap;html=1;opacity=40;" vertex="1" parent="1">
          <mxGeometry x="900.7500000000001" y="326" width="10" height="13" as="geometry" />
        </mxCell>
        <mxCell id="0Un-V5Zj1Mwy1KT30ReD-361" value="" style="verticalLabelPosition=bottom;verticalAlign=top;html=1;shape=mxgraph.basic.star;" vertex="1" parent="1">
          <mxGeometry x="892.6300000000001" y="330.01" width="6" height="6" as="geometry" />
        </mxCell>
        <mxCell id="0Un-V5Zj1Mwy1KT30ReD-327" style="rounded=0;orthogonalLoop=1;jettySize=auto;html=1;endArrow=classicThin;endFill=1;endSize=2;fillColor=#d5e8d4;strokeColor=#82b366;startArrow=none;startFill=0;exitX=0.588;exitY=1.055;exitDx=0;exitDy=0;exitPerimeter=0;entryX=0.339;entryY=-0.051;entryDx=0;entryDy=0;entryPerimeter=0;" edge="1" parent="1" source="0Un-V5Zj1Mwy1KT30ReD-283" target="0Un-V5Zj1Mwy1KT30ReD-359">
          <mxGeometry relative="1" as="geometry">
            <mxPoint x="828" y="268" as="sourcePoint" />
            <mxPoint x="903" y="324" as="targetPoint" />
          </mxGeometry>
        </mxCell>
        <mxCell id="0Un-V5Zj1Mwy1KT30ReD-365" value="" style="rounded=0;whiteSpace=wrap;html=1;strokeColor=#82b366;fillColor=#d5e8d4;" vertex="1" parent="1">
          <mxGeometry x="971.75" y="297.49999999999994" width="19.27" height="8.99" as="geometry" />
        </mxCell>
        <mxCell id="0Un-V5Zj1Mwy1KT30ReD-366" value="&lt;font style=&quot;font-size: 9px;&quot;&gt;/&lt;/font&gt;" style="text;html=1;strokeColor=none;fillColor=none;align=center;verticalAlign=middle;whiteSpace=wrap;rounded=0;" vertex="1" parent="1">
          <mxGeometry x="992.79" y="237" width="10.5" height="16" as="geometry" />
        </mxCell>
        <mxCell id="0Un-V5Zj1Mwy1KT30ReD-367" style="rounded=0;orthogonalLoop=1;jettySize=auto;html=1;exitX=0.5;exitY=1;exitDx=0;exitDy=0;fillColor=#f8cecc;strokeColor=#FF0000;endArrow=classicThin;endFill=1;" edge="1" parent="1">
          <mxGeometry relative="1" as="geometry">
            <mxPoint x="1006.01" y="245" as="sourcePoint" />
            <mxPoint x="1026.47" y="245" as="targetPoint" />
          </mxGeometry>
        </mxCell>
        <mxCell id="0Un-V5Zj1Mwy1KT30ReD-368" value="&lt;font style=&quot;font-size: 9px;&quot;&gt;/&lt;/font&gt;" style="text;html=1;strokeColor=none;fillColor=none;align=center;verticalAlign=middle;whiteSpace=wrap;rounded=0;" vertex="1" parent="1">
          <mxGeometry x="993.3" y="290.99999999999994" width="10.5" height="16" as="geometry" />
        </mxCell>
        <mxCell id="0Un-V5Zj1Mwy1KT30ReD-369" value="&lt;font style=&quot;font-size: 9px;&quot;&gt;Global Capability&lt;/font&gt;" style="text;html=1;strokeColor=none;fillColor=none;align=center;verticalAlign=middle;whiteSpace=wrap;rounded=0;" vertex="1" parent="1">
          <mxGeometry x="961.73" y="307.98" width="75.19" height="16" as="geometry" />
        </mxCell>
        <mxCell id="0Un-V5Zj1Mwy1KT30ReD-370" value="&lt;font style=&quot;font-size: 9px;&quot;&gt;Abstraction (GPA)&lt;/font&gt;" style="text;html=1;strokeColor=none;fillColor=none;align=center;verticalAlign=middle;whiteSpace=wrap;rounded=0;" vertex="1" parent="1">
          <mxGeometry x="961.0300000000001" y="318.5" width="77.89" height="16" as="geometry" />
        </mxCell>
        <mxCell id="0Un-V5Zj1Mwy1KT30ReD-371" value="" style="shape=card;whiteSpace=wrap;html=1;size=5;fillColor=#f5f5f5;fontColor=#333333;strokeColor=#666666;" vertex="1" parent="1">
          <mxGeometry x="984" y="336" width="31.32" height="9" as="geometry" />
        </mxCell>
        <mxCell id="0Un-V5Zj1Mwy1KT30ReD-375" style="rounded=0;orthogonalLoop=1;jettySize=auto;html=1;entryX=0;entryY=0.75;entryDx=0;entryDy=0;startArrow=classicThin;startFill=1;endArrow=classicThin;endFill=1;endSize=3;startSize=3;" edge="1" parent="1" target="0Un-V5Zj1Mwy1KT30ReD-328">
          <mxGeometry relative="1" as="geometry">
            <mxPoint x="856" y="338" as="sourcePoint" />
          </mxGeometry>
        </mxCell>
      </root>
    </mxGraphModel>
  </diagram>
</mxfile>
